<svg width="15" height="15" viewBox="0 0 15 15" fill="none" xmlns="http://www.w3.org/2000/svg">
<path d="M13.3018 5.36543H12.9416V3.62753C12.9416 3.61669 12.9399 3.60577 12.9384 3.59479C12.9379 3.52578 12.9159 3.458 12.8687 3.4043L9.9766 0.100599C9.97573 0.0997547 9.97489 0.0994551 9.97429 0.0985292C9.95705 0.0792755 9.93695 0.0632624 9.91571 0.0494008C9.90942 0.0451797 9.90307 0.0416394 9.89648 0.0379901C9.87807 0.0279411 9.85855 0.0196078 9.83845 0.0135893C9.833 0.0120642 9.8281 0.00983114 9.82265 0.00841502C9.80081 0.00324073 9.77813 0 9.75514 0H2.6475C2.32294 0 2.05927 0.26397 2.05927 0.588261V5.36529H1.69917C1.23487 5.36529 0.858398 5.7416 0.858398 6.20606V10.5782C0.858398 11.0423 1.23487 11.4189 1.69917 11.4189H2.0593V14.4117C2.0593 14.736 2.32297 15 2.64753 15H12.3534C12.6777 15 12.9416 14.736 12.9416 14.4117V11.4189H13.3018C13.766 11.4189 14.1425 11.0423 14.1425 10.5782V6.2062C14.1425 5.74176 13.7659 5.36543 13.3018 5.36543ZM2.6475 0.58837H9.46103V3.59798C9.46103 3.76048 9.59286 3.8921 9.75514 3.8921H12.3534V5.36562H2.6475V0.58837ZM9.8686 8.41564C9.8686 9.25649 9.56242 9.83626 9.13821 10.1949C8.67603 10.5793 7.97209 10.7617 7.11217 10.7617C6.59747 10.7617 6.23263 10.7291 5.9847 10.6966V6.38248C6.34959 6.32395 6.8256 6.29136 7.3274 6.29136C8.16106 6.29136 8.70207 6.44135 9.12584 6.76047C9.5818 7.09939 9.8686 7.64015 9.8686 8.41564ZM2.19816 10.7162V6.38248C2.50428 6.33063 2.93459 6.29136 3.54064 6.29136C4.15314 6.29136 4.58985 6.40868 4.88298 6.64342C5.16327 6.86486 5.3518 7.22986 5.3518 7.65998C5.3518 8.09023 5.20883 8.45513 4.94796 8.7026C4.60913 9.02199 4.10741 9.16545 3.52076 9.16545C3.39064 9.16545 3.27294 9.15883 3.18211 9.14576V10.7163H2.19816V10.7162ZM12.3534 14.2525H2.6475V11.4189H12.3534V14.2525H12.3534ZM13.2057 7.13852H11.5176V8.14209H13.0947V8.9502H11.5176V10.7162H10.521V6.32395H13.2057V7.13852Z" fill="white"/>
</svg>
