<svg width="11" height="11" viewBox="0 0 11 11" fill="none" xmlns="http://www.w3.org/2000/svg">
<path d="M4.35282 0C5.50726 0 6.61442 0.458599 7.43073 1.27491C8.24704 2.09122 8.70564 3.19838 8.70564 4.35282C8.70564 5.30677 8.39865 6.18879 7.8786 6.90632L10.7955 9.82317C10.9216 9.94745 10.9949 10.1156 11 10.2926C11.0052 10.4696 10.9419 10.6417 10.8233 10.7732C10.7047 10.9046 10.5399 10.9852 10.3633 10.9982C10.1867 11.0111 10.0119 10.9554 9.8754 10.8426L9.82317 10.7955L6.90632 7.8786C6.16413 8.41757 5.27006 8.70714 4.35282 8.70564C3.19838 8.70564 2.09122 8.24704 1.27491 7.43073C0.458599 6.61442 0 5.50726 0 4.35282C0 3.19838 0.458599 2.09122 1.27491 1.27491C2.09122 0.458599 3.19838 1.72025e-08 4.35282 0ZM4.35282 1.37457C3.56294 1.37457 2.80541 1.68835 2.24688 2.24688C1.68835 2.80541 1.37457 3.56294 1.37457 4.35282C1.37457 5.1427 1.68835 5.90023 2.24688 6.45876C2.80541 7.01729 3.56294 7.33106 4.35282 7.33106C5.1427 7.33106 5.90023 7.01729 6.45876 6.45876C7.01729 5.90023 7.33106 5.1427 7.33106 4.35282C7.33106 3.56294 7.01729 2.80541 6.45876 2.24688C5.90023 1.68835 5.1427 1.37457 4.35282 1.37457Z" fill="white"/>
</svg>
