<svg width="16" height="16" viewBox="0 0 16 16" fill="none" xmlns="http://www.w3.org/2000/svg">
<path d="M10.7091 7.99981L15.4387 3.27051C16.1871 2.52214 16.1871 1.30897 15.4387 0.560987C14.6911 -0.186996 13.4772 -0.186996 12.7296 0.560987L8 5.29105L3.27037 0.560987C2.52278 -0.186996 1.30886 -0.186996 0.561267 0.560987C-0.187089 1.30935 -0.187089 2.52252 0.561267 3.27051L5.29051 7.99981L0.561267 12.7291C-0.187089 13.4775 -0.187089 14.6906 0.561267 15.4386C0.934871 15.813 1.42573 15.9996 1.91582 15.9996C2.40553 15.9996 2.89677 15.813 3.27037 15.4386L8 10.7093L12.7296 15.439C13.1036 15.8134 13.5941 16 14.0842 16C14.5743 16 15.0651 15.8134 15.4387 15.439C16.1871 14.6906 16.1871 13.4775 15.4387 12.7295L10.7091 7.99981Z" fill="#CCCCCC"/>
</svg>
