<svg width="164" height="37" viewBox="0 0 164 37" fill="none" xmlns="http://www.w3.org/2000/svg">
<path d="M39 24.7995V10.2005H44.2141C46.0202 10.2005 47.3902 10.5414 48.324 11.2233C49.2577 11.8984 49.7246 12.891 49.7246 14.2012C49.7246 14.9164 49.5372 15.5481 49.1623 16.0963C48.7874 16.6377 48.266 17.0354 47.5981 17.2894C48.3614 17.4766 48.9612 17.8543 49.3974 18.4225C49.8405 18.9906 50.062 19.6858 50.062 20.508C50.062 21.9118 49.6053 22.9746 48.692 23.6965C47.7787 24.4184 46.4769 24.7861 44.7866 24.7995H39ZM42.0671 18.4425V22.383H44.6946C45.417 22.383 45.9793 22.2159 46.3815 21.8817C46.7904 21.5408 46.9949 21.0729 46.9949 20.4779C46.9949 19.141 46.2895 18.4626 44.8786 18.4425H42.0671ZM42.0671 16.3168H44.3367C45.8839 16.2901 46.6575 15.6852 46.6575 14.502C46.6575 13.8402 46.4599 13.3656 46.0645 13.0782C45.676 12.7841 45.0592 12.637 44.2141 12.637H42.0671V16.3168Z" fill="white"/>
<path d="M58.3942 16.6678C57.9921 16.6143 57.6377 16.5876 57.331 16.5876C56.2132 16.5876 55.4805 16.9586 55.1329 17.7005V24.7995H52.1783V13.9505H54.9693L55.0511 15.244C55.6441 14.248 56.4654 13.75 57.515 13.75C57.8422 13.75 58.1489 13.7934 58.4351 13.8803L58.3942 16.6678Z" fill="white"/>
<path d="M58.9974 19.2747C58.9974 18.1985 59.2087 17.2393 59.6313 16.3971C60.0539 15.5548 60.6605 14.9031 61.4511 14.4418C62.2486 13.9806 63.1721 13.75 64.2217 13.75C65.7144 13.75 66.931 14.1979 67.8716 15.0936C68.819 15.9893 69.3472 17.2059 69.4562 18.7433L69.4767 19.4853C69.4767 21.1497 69.003 22.4866 68.0556 23.496C67.1082 24.4987 65.8371 25 64.2422 25C62.6473 25 61.3727 24.4987 60.4185 23.496C59.4711 22.4933 58.9974 21.1297 58.9974 19.4051V19.2747ZM61.9521 19.4853C61.9521 20.5147 62.1497 21.3035 62.545 21.8516C62.9404 22.393 63.5061 22.6638 64.2422 22.6638C64.9578 22.6638 65.5167 22.3964 65.9188 21.8616C66.321 21.3202 66.522 20.4579 66.522 19.2747C66.522 18.2654 66.321 17.4833 65.9188 16.9285C65.5167 16.3737 64.951 16.0963 64.2217 16.0963C63.4993 16.0963 62.9404 16.3737 62.545 16.9285C62.1497 17.4766 61.9521 18.3289 61.9521 19.4853Z" fill="white"/>
<path d="M88.9323 17.8309C88.9323 19.268 88.6733 20.5281 88.1553 21.611C87.6373 22.6938 86.8944 23.5294 85.9265 24.1176C84.9655 24.7059 83.8613 25 82.6141 25C81.3804 25 80.2797 24.7092 79.3118 24.1277C78.344 23.5461 77.5942 22.7172 77.0626 21.641C76.531 20.5582 76.2618 19.3148 76.255 17.9111V17.1892C76.255 15.752 76.5174 14.4886 77.0422 13.3991C77.5738 12.3028 78.3201 11.4639 79.2812 10.8824C80.249 10.2941 81.3531 10 82.5936 10C83.8341 10 84.9348 10.2941 85.8958 10.8824C86.8637 11.4639 87.61 12.3028 88.1348 13.3991C88.6665 14.4886 88.9323 15.7487 88.9323 17.1791V17.8309ZM85.8243 17.1691C85.8243 15.6384 85.5448 14.4753 84.9859 13.6798C84.4271 12.8844 83.6296 12.4866 82.5936 12.4866C81.5644 12.4866 80.7704 12.881 80.2115 13.6698C79.6526 14.4519 79.3698 15.6016 79.3629 17.119V17.8309C79.3629 19.3215 79.6424 20.4779 80.2013 21.3001C80.7602 22.1223 81.5644 22.5334 82.6141 22.5334C83.6432 22.5334 84.4339 22.139 84.9859 21.3503C85.538 20.5548 85.8175 19.3984 85.8243 17.881V17.1691Z" fill="white"/>
<path d="M95.1789 17.1892L97.0396 13.9505H100.199L97.0498 19.2647L100.332 24.7995H97.1623L95.1891 21.3904L93.2262 24.7995H90.0466L93.3284 19.2647L90.1898 13.9505H93.3591L95.1789 17.1892Z" fill="white"/>
<path d="M107.836 16.6678C107.434 16.6143 107.079 16.5876 106.773 16.5876C105.655 16.5876 104.922 16.9586 104.574 17.7005V24.7995H101.62V13.9505H104.411L104.493 15.244C105.086 14.248 105.907 13.75 106.957 13.75C107.284 13.75 107.59 13.7934 107.877 13.8803L107.836 16.6678Z" fill="white"/>
<path d="M115.371 24.7995C115.234 24.5388 115.135 24.2146 115.074 23.8269C114.358 24.609 113.428 25 112.283 25C111.199 25 110.3 24.6925 109.584 24.0775C108.875 23.4626 108.521 22.6872 108.521 21.7513C108.521 20.6016 108.954 19.7193 109.819 19.1043C110.692 18.4893 111.949 18.1785 113.592 18.1718H114.951V17.5501C114.951 17.0488 114.819 16.6477 114.553 16.3469C114.294 16.0461 113.881 15.8957 113.316 15.8957C112.818 15.8957 112.426 16.0127 112.14 16.2467C111.86 16.4806 111.721 16.8015 111.721 17.2092H108.766C108.766 16.5809 108.964 15.9993 109.359 15.4646C109.754 14.9298 110.313 14.512 111.036 14.2112C111.758 13.9037 112.569 13.75 113.469 13.75C114.832 13.75 115.912 14.0876 116.71 14.7627C117.514 15.4311 117.916 16.3737 117.916 17.5902V22.2928C117.923 23.3222 118.07 24.1009 118.356 24.629V24.7995H115.371ZM112.927 22.7841C113.363 22.7841 113.765 22.6905 114.134 22.5033C114.502 22.3095 114.774 22.0521 114.951 21.7313V19.8663H113.847C112.368 19.8663 111.581 20.3676 111.486 21.3703L111.475 21.5408C111.475 21.9017 111.605 22.1992 111.864 22.4332C112.123 22.6671 112.477 22.7841 112.927 22.7841Z" fill="white"/>
<path d="M123.447 19.6557V24.7995H120.38V10.2005H126.187C127.305 10.2005 128.286 10.4011 129.132 10.8021C129.984 11.2032 130.638 11.7747 131.095 12.5167C131.551 13.252 131.78 14.0909 131.78 15.0334C131.78 16.4639 131.279 17.5936 130.277 18.4225C129.282 19.2447 127.901 19.6557 126.136 19.6557H123.447ZM123.447 17.2193H126.187C126.998 17.2193 127.615 17.0321 128.038 16.6578C128.467 16.2834 128.682 15.7487 128.682 15.0535C128.682 14.3382 128.467 13.76 128.038 13.3189C127.608 12.8777 127.015 12.6504 126.259 12.637H123.447V17.2193Z" fill="white"/>
<path d="M139.918 16.6678C139.515 16.6143 139.161 16.5876 138.854 16.5876C137.737 16.5876 137.004 16.9586 136.656 17.7005V24.7995H133.702V13.9505H136.493L136.574 15.244C137.167 14.248 137.989 13.75 139.038 13.75C139.365 13.75 139.672 13.7934 139.958 13.8803L139.918 16.6678Z" fill="white"/>
<path d="M140.521 19.2747C140.521 18.1985 140.732 17.2393 141.155 16.3971C141.577 15.5548 142.184 14.9031 142.974 14.4418C143.772 13.9806 144.695 13.75 145.745 13.75C147.238 13.75 148.454 14.1979 149.395 15.0936C150.342 15.9893 150.871 17.2059 150.98 18.7433L151 19.4853C151 21.1497 150.526 22.4866 149.579 23.496C148.632 24.4987 147.36 25 145.765 25C144.171 25 142.896 24.4987 141.942 23.496C140.994 22.4933 140.521 21.1297 140.521 19.4051V19.2747ZM143.475 19.4853C143.475 20.5147 143.673 21.3035 144.068 21.8516C144.464 22.393 145.029 22.6638 145.765 22.6638C146.481 22.6638 147.04 22.3964 147.442 21.8616C147.844 21.3202 148.045 20.4579 148.045 19.2747C148.045 18.2654 147.844 17.4833 147.442 16.9285C147.04 16.3737 146.474 16.0963 145.745 16.0963C145.023 16.0963 144.464 16.3737 144.068 16.9285C143.673 17.4766 143.475 18.3289 143.475 19.4853Z" fill="white"/>
<path fill-rule="evenodd" clip-rule="evenodd" d="M30 15C30 21.8991 25.3424 27.7103 19 29.4608V37H11V29.4608C4.65763 27.7103 0 21.8991 0 15C0 6.71573 6.71573 0 15 0C17.8161 0 20.451 0.776048 22.7024 2.12595L24.8284 0L30.4852 5.65685L28.2255 7.9166C29.3578 10.0262 30 12.4381 30 15ZM25.01 10.3417L22.7346 12.6171C22.9078 13.2718 23 13.9593 23 14.6683C23 17.6295 21.3912 20.2148 19 21.5981V28.6683H11V21.5981C8.60879 20.2148 7 17.6295 7 14.6683C7 10.2501 10.5817 6.66833 15 6.66833C15.9013 6.66833 16.7678 6.81738 17.5762 7.09217L19.6683 5L25.01 10.3417Z" fill="#FB5820"/>
</svg>
